<svg xmlns="http://www.w3.org/2000/svg" viewBox="0 0 1600 900" role="img" aria-label="AEO GEO performance measurement SEO report thumbnail">
  <rect width="1600" height="900" fill="#f8f8f5"/>
  <g fill="none" stroke="#343595" stroke-width="4">
    <rect x="180" y="135" width="720" height="535" rx="34"/>
    <path d="M180 235h720"/>
    <circle cx="235" cy="185" r="13"/><circle cx="285" cy="185" r="13"/><circle cx="335" cy="185" r="13"/>
    <path d="M275 335h510M275 415h350M275 495h440"/>
    <path d="M275 590h150M470 590h150M665 590h120"/>
    <path d="M300 550l82-92 88 48 92-128 118 80"/>
    <circle cx="382" cy="458" r="9" fill="#f8f8f5"/>
    <circle cx="470" cy="506" r="9" fill="#f8f8f5"/>
    <circle cx="562" cy="378" r="9" fill="#f8f8f5"/>
    <circle cx="680" cy="458" r="9" fill="#f8f8f5"/>
  </g>
  <g fill="none" stroke="#7678ee" stroke-width="5">
    <rect x="1050" y="210" width="320" height="320" rx="48"/>
    <path d="M1122 330h176M1122 395h130M1122 460h176"/>
    <circle cx="1088" cy="330" r="10" fill="#f8f8f5"/>
    <circle cx="1088" cy="395" r="10" fill="#f8f8f5"/>
    <circle cx="1088" cy="460" r="10" fill="#f8f8f5"/>
    <path d="M1005 650h430"/>
    <path d="M1115 650v-70M1210 650v-115M1305 650v-165"/>
  </g>
  <text x="180" y="750" fill="#343595" font-family="Menlo, Consolas, monospace" font-size="34" letter-spacing="10">AEO / GEO REPORT</text>
  <text x="180" y="815" fill="#07070a" font-family="Inter, Arial, sans-serif" font-size="58" font-weight="800">Performance Metrics</text>
</svg>
