<svg xmlns="http://www.w3.org/2000/svg" viewBox="0 0 1600 900" role="img" aria-label="AI citations AEO GEO thumbnail">
  <rect width="1600" height="900" fill="#f8f8f5"/>
  <g fill="none" stroke="#343595" stroke-width="4">
    <rect x="190" y="150" width="690" height="510" rx="34"/>
    <path d="M190 250h690"/>
    <circle cx="245" cy="200" r="13"/><circle cx="295" cy="200" r="13"/><circle cx="345" cy="200" r="13"/>
    <path d="M290 350h470M290 430h360M290 510h420"/>
    <path d="M330 585h350"/>
  </g>
  <g fill="none" stroke="#7678ee" stroke-width="5">
    <circle cx="1180" cy="365" r="175"/>
    <path d="M1180 190v350M1005 365h350"/>
    <path d="M1060 275c70 58 170 58 240 0M1060 455c70-58 170-58 240 0"/>
    <path d="M1010 665h170M1220 665h190"/>
  </g>
  <text x="190" y="750" fill="#343595" font-family="Menlo, Consolas, monospace" font-size="34" letter-spacing="10">AI CITATIONS</text>
  <text x="190" y="815" fill="#07070a" font-family="Inter, Arial, sans-serif" font-size="58" font-weight="800">AEO / GEO Signals</text>
</svg>
