<svg xmlns="http://www.w3.org/2000/svg" viewBox="0 0 1600 900" role="img" aria-label="SEO core checklist thumbnail">
  <rect width="1600" height="900" fill="#f8f8f5"/>
  <g fill="none" stroke="#343595" stroke-width="4">
    <rect x="190" y="150" width="700" height="500" rx="34"/>
    <path d="M190 250h700"/>
    <circle cx="245" cy="200" r="13"/><circle cx="295" cy="200" r="13"/><circle cx="345" cy="200" r="13"/>
    <path d="M300 360h260M300 455h420M300 550h320"/>
    <path d="M250 350l28 28 46-64M250 445l28 28 46-64M250 540l28 28 46-64"/>
  </g>
  <g fill="none" stroke="#7678ee" stroke-width="5">
    <circle cx="1210" cy="355" r="160"/>
    <path d="M1092 355h236M1210 237v236"/>
    <path d="M1116 618h196M1060 680h308"/>
    <path d="M1010 150h430M1010 750h430"/>
  </g>
  <text x="190" y="750" fill="#343595" font-family="Menlo, Consolas, monospace" font-size="34" letter-spacing="10">CORE ITEMS</text>
  <text x="190" y="815" fill="#07070a" font-family="Inter, Arial, sans-serif" font-size="58" font-weight="800">SEO Audit Flow</text>
</svg>
